<svg width="67" height="67" viewBox="0 0 67 67" fill="none" xmlns="http://www.w3.org/2000/svg">
<path d="M16.0783 0V37.5202H0C0 37.5202 0 54.0811 0 59.4321C0 64.7832 4.98409 66.9975 8.6763 66.9975C12.3685 66.9975 49.5444 66.9975 58.9596 66.9975C63.0213 66.9975 67 63.0464 67 58.9571C67 56.0038 67 0 67 0H16.0783ZM8.6763 64.3182C7.00739 64.3182 2.68181 63.441 2.68181 59.4321V40.1995H16.0808V58.276C16.0808 60.0705 13.7358 64.3182 10.0386 64.3182H8.6763ZM64.3182 58.9571C64.3182 61.561 61.5635 64.3182 58.9571 64.3182H15.9451C17.7497 62.4382 18.7576 59.9675 18.7576 58.276V2.6793H64.3157L64.3182 58.9571Z" fill="#B4FF4F"/>
<path d="M24.1186 8.04065H58.957V10.7199H24.1186V8.04065Z" fill="#B4FF4F"/>
<path d="M24.1186 44.2185H58.957V46.8978H24.1186V44.2185Z" fill="#B4FF4F"/>
<path d="M24.1186 53.5983H58.957V56.2776H24.1186V53.5983Z" fill="#B4FF4F"/>
<path d="M58.957 17.4177H24.1186V37.5175H58.957V17.4177ZM56.2777 34.8382H26.7979V20.0995H56.2777V34.8382Z" fill="#B4FF4F"/>
</svg>
