<svg width="367" height="150" viewBox="0 0 367 150" fill="none" xmlns="http://www.w3.org/2000/svg">
<path d="M32.0783 17V54.5202H16C16 54.5202 16 71.0811 16 76.4321C16 81.7832 20.9841 83.9975 24.6763 83.9975C28.3685 83.9975 65.5444 83.9975 74.9596 83.9975C79.0213 83.9975 83 80.0464 83 75.9571C83 73.0038 83 17 83 17H32.0783ZM24.6763 81.3182C23.0074 81.3182 18.6818 80.441 18.6818 76.4321V57.1995H32.0808V75.276C32.0808 77.0705 29.7358 81.3182 26.0386 81.3182H24.6763ZM80.3182 75.9571C80.3182 78.561 77.5635 81.3182 74.9571 81.3182H31.9451C33.7497 79.4382 34.7576 76.9675 34.7576 75.276V19.6793H80.3157L80.3182 75.9571Z" fill="#B4FF4F"/>
<path d="M40.1186 25.0406H74.957V27.7199H40.1186V25.0406Z" fill="#B4FF4F"/>
<path d="M40.1186 61.2185H74.957V63.8978H40.1186V61.2185Z" fill="#B4FF4F"/>
<path d="M40.1186 70.5983H74.957V73.2776H40.1186V70.5983Z" fill="#B4FF4F"/>
<path d="M74.957 34.4177H40.1186V54.5175H74.957V34.4177ZM72.2777 51.8382H42.7979V37.0995H72.2777V51.8382Z" fill="#B4FF4F"/>
<path d="M103.091 110V40.1818H141.955V44.1364H107.352V73.0795H139.875V77.0341H107.352V106.045H142.773V110H103.091ZM157.644 40.1818V110H153.382V40.1818H157.644ZM220.531 62C220.009 59.6364 219.122 57.3523 217.872 55.1477C216.622 52.9205 215.02 50.9205 213.065 49.1477C211.134 47.3523 208.861 45.9318 206.247 44.8864C203.656 43.8409 200.747 43.3182 197.52 43.3182C192.588 43.3182 188.213 44.6136 184.395 47.2045C180.6 49.7727 177.622 53.4432 175.463 58.2159C173.327 62.9659 172.259 68.5909 172.259 75.0909C172.259 81.5227 173.327 87.125 175.463 91.8977C177.6 96.6705 180.588 100.364 184.429 102.977C188.293 105.568 192.781 106.864 197.895 106.864C202.463 106.864 206.509 105.807 210.031 103.693C213.577 101.58 216.338 98.5568 218.315 94.625C220.293 90.6932 221.259 85.9886 221.213 80.5114L222.713 81.2273H198.986V77.2727H225.372V81.2273C225.372 87.3864 224.19 92.6932 221.827 97.1477C219.486 101.58 216.236 104.989 212.077 107.375C207.94 109.761 203.213 110.955 197.895 110.955C191.895 110.955 186.656 109.466 182.179 106.489C177.702 103.511 174.225 99.3409 171.747 93.9773C169.293 88.5909 168.065 82.2955 168.065 75.0909C168.065 69.6818 168.77 64.7727 170.179 60.3636C171.588 55.9545 173.6 52.1818 176.213 49.0455C178.827 45.8864 181.94 43.4659 185.554 41.7841C189.168 40.0795 193.156 39.2273 197.52 39.2273C201.475 39.2273 205.031 39.8864 208.19 41.2045C211.35 42.5 214.077 44.25 216.372 46.4545C218.69 48.6364 220.565 51.0795 221.997 53.7841C223.429 56.4659 224.395 59.2045 224.895 62H220.531ZM236.433 110V40.1818H275.297V44.1364H240.695V73.0795H273.217V77.0341H240.695V106.045H276.115V110H236.433ZM340.077 40.1818V110H335.918L291.395 47.9205H290.986V110H286.725V40.1818H290.918L335.441 102.33H335.85V40.1818H340.077Z" fill="white"/>
</svg>
